PathFileType	4	(X/Y/Z)	61_2_6_p0_0-921.trc
DataRate	CameraRate	NumFrames	NumMarkers	Units	OrigDataRate	OrigDataStartFrame	OrigNumFrames
60.0	60.0	6	27	m	60.0	691	922
Frame#	Time	RHip			RKnee			RAnkle			RBigToe			RSmallToe			RHeel			LHip			LKnee			LAnkle			LBigToe			LSmallToe			LHeel			Neck			Head			Nose			RShoulder			RElbow			RWrist			RThumb			RIndex			RPinky			LShoulder			LElbow			LWrist			LThumb			LIndex			LPinky			
		X1	Y1	Z1	X2	Y2	Z2	X3	Y3	Z3	X4	Y4	Z4	X5	Y5	Z5	X6	Y6	Z6	X7	Y7	Z7	X8	Y8	Z8	X9	Y9	Z9	X10	Y10	Z10	X11	Y11	Z11	X12	Y12	Z12	X13	Y13	Z13	X14	Y14	Z14	X15	Y15	Z15	X16	Y16	Z16	X17	Y17	Z17	X18	Y18	Z18	X19	Y19	Z19	X20	Y20	Z20	X21	Y21	Z21	X22	Y22	Z22	X23	Y23	Z23	X24	Y24	Z24	X25	Y25	Z25	X26	Y26	Z26	X27	Y27	Z27	
691	11.516666666666667	0.41299559247962325	0.6130278250398767	0.9859473796739484	0.4384623390664513	0.7619459712145719	1.3849408274015318	0.3963506952285859	0.9017027127186179	1.780167571960784	0.33534967122825843	0.731428383636981	1.8039934649269622	0.4078274787772361	0.7800489085412866	1.8192767906568086	0.3938636050749718	1.0179424164979491	1.8341376141169845	0.199949572485163	0.6329051984769862	0.9798369944358252	0.17646184729265765	0.6782345697637101	1.370392922465977	0.10962597634089717	0.877822812875002	1.776660687380972	0.16300790352805078	0.7340221213378285	1.8312552218923606	0.08171358219898212	0.7381414987427444	1.8134875903579641	0.11748788801471122	0.9707502782244798	1.8294203348614366	0.32457161335939627	0.48336424319415905	0.4301965176109806	0.32360002606396077	0.4021677325076289	0.19746403387984776	0.2925352423057386	0.3552088567925214	0.33793682256292884	0.4718301706889724	0.5118205122284244	0.5094346106870612	0.5421862052121927	0.4879009465138017	0.7370008611966874	0.4415167729294534	0.2724714782738777	0.7810712434100743	0.3446589857769373	0.23813842452975148	0.75436344181311	0.35526553886465567	0.20492721121074145	0.7619786226186528	0.37134620457235573	0.23174538037837203	0.8059411086462581	0.1639285532377821	0.5573401277966339	0.4992676015524892	0.09179824521098721	0.5626934401719487	0.753785059816743	0.1668134666085949	0.36451787539319436	0.7686428959437873	0.22111926833309978	0.24504624706783948	0.7162426805704069	0.22092529633399735	0.2334315062933465	0.7371434968211895	0.22673500180896503	0.2563544057801299	0.7826103033499937
692	11.533333333333333	0.4033048818398469	0.5958685251286346	0.972479323171062	0.43575925477251826	0.7627290080368756	1.3771637774840326	0.39616467133038913	0.9018534621965716	1.779831015647621	0.3316347979556497	0.7502608029932331	1.8162875635484346	0.40820929926825616	0.7801622671142245	1.8194521553604472	0.3924459797475673	1.0177444861220666	1.8301593322723722	0.18672675066412645	0.6328935911994731	0.980595734866882	0.17552528722629457	0.6756397580070578	1.3658818810818434	0.10950698437757746	0.8779886256423793	1.776716137724029	0.16460847540783294	0.7224439984956134	1.8272631233664347	0.0816066826836179	0.7378954831332811	1.8135216821373008	0.11328828725791035	0.9668521943889046	1.828224805597375	0.324233364690439	0.48404782690211207	0.43370042300349504	0.3233051387557419	0.4021300627384474	0.19746475520024054	0.2888781995971217	0.35323926708254605	0.33841509455724716	0.4716001337682658	0.512388625279482	0.5093969879394579	0.5424490594610315	0.4731457026151511	0.7298318027971024	0.45018645547314556	0.2781369905910997	0.7551562423029673	0.3586490866171446	0.2350206849034544	0.7290958994976684	0.37231265711142864	0.1716432364818137	0.7366503668530743	0.38058326275633264	0.18826588995614355	0.7823337339036487	0.1599126467287108	0.5549702143438145	0.5006082002467075	0.07868275072203366	0.5597821392347616	0.7740052037622563	0.152519088861424	0.3428353222958884	0.7611729072363779	0.20679350902576907	0.2552076958099197	0.6876308199221137	0.20900257554523904	0.21888990619221976	0.6931906477173039	0.21571436233144223	0.23610980091449865	0.7578229328869395
693	11.55	0.3974696471361727	0.6108422574572278	0.9664058166949604	0.4330439931405603	0.7470179998090818	1.3696914790430397	0.3951543215929517	0.9165096095223884	1.7851742269236102	0.33562303663854665	0.7310652899126612	1.8043373205745747	0.41089031060113607	0.794173261439922	1.8243406620959783	0.39353097566069994	1.0176963929806395	1.8334217354690614	0.1864268581889485	0.6330517556498836	0.9803064045315482	0.17607274415341737	0.6743338514099908	1.3615961047430325	0.10710379435944276	0.8769534185509528	1.7851092275811826	0.16463177163524534	0.7222511712238586	1.827314820332163	0.08169318713549216	0.7379196582664433	1.81367928715543	0.11699113916467006	0.9853356869780271	1.8423117066117478	0.3151384648041561	0.4952116917190312	0.4333641501242989	0.3192277661645277	0.4022249801180393	0.197909081710619	0.28850890688671693	0.3535076268751509	0.3354552002250467	0.46854673141632924	0.5016669369884581	0.5100601043236975	0.5369665169672262	0.5024835918312444	0.7419166407408708	0.44942770648859204	0.26447722802393525	0.7339855533384421	0.3880639508695714	0.14020789099914813	0.6835149334568721	0.3851711576875991	0.14435699894612294	0.6917612131288589	0.3865692130232873	0.17483262876942154	0.7461706369103186	0.1554287993660935	0.5319229976890573	0.5025581648284262	0.0745908333269637	0.5070354061514806	0.7724781093575696	0.11996766286922464	0.3474127591177666	0.7533377429792767	0.1542433069856603	0.27538458200361243	0.6836733342191252	0.15612817200593945	0.2551654736496762	0.6871960591572696	0.1671849894189327	0.26090367721654917	0.7257198908283033
694	11.566666666666666	0.3886144829822773	0.6059703843580534	0.9663313686296863	0.42453496824993225	0.7321144436590139	1.3719840688870892	0.3951271547173999	0.9164324329568123	1.784763451802411	0.3301463106274527	0.747138984548339	1.810616588663222	0.41074525400721174	0.7946981084026444	1.82435251178359	0.3965995445080241	1.020085326051693	1.8289056058998074	0.17971144161605476	0.6168017470931704	0.979518496651327	0.17306174191130635	0.6715370374139126	1.3610858913114374	0.10500475706098383	0.8750021255442296	1.785224410549545	0.1646417837430908	0.7223791441728407	1.8274132547547486	0.08175535192870104	0.737813365483316	1.8136456351123775	0.1049523224677365	0.9978329519158866	1.8426718633356554	0.3148074267448594	0.495444214930641	0.43334565729106206	0.3144759571607664	0.41402618278966274	0.19617787389303398	0.2854839366921497	0.3533243389701994	0.3421573477827922	0.46405996126218835	0.49936616235153747	0.51069498857442	0.5299064182243243	0.5139847656163686	0.7499844116415041	0.4680089522613525	0.3063847230392594	0.7330873961578768	0.41910533927788773	0.15939782068166233	0.6643211000780775	0.4327430627504351	0.15996008144792467	0.6665082458858724	0.44106503188494806	0.19528890297815218	0.7216404391301072	0.1513962089761358	0.5291772298649754	0.502892966788993	0.07349754973344229	0.5618337041547313	0.7571508449255534	0.10256408415428978	0.3588449032202232	0.7390960883912625	0.12680751617216754	0.2511376840448327	0.6747417930380246	0.12559672603559283	0.22747039104657102	0.6830975627995	0.1392219058469363	0.22468198105147782	0.7146678730168832
695	11.583333333333334	0.3890567292717551	0.6056052062047047	0.96975188004246	0.42325389565261723	0.7341638155321536	1.373028098317617	0.3942368170124413	0.9009550886357018	1.771581152137765	0.3299045205327044	0.7455157436498832	1.8101749188200773	0.41065904395115954	0.7929274111590593	1.824234025195536	0.40108831397104716	1.0255847916559429	1.832507007590255	0.17390178085737693	0.600830102148962	0.98248166679047	0.16921699539088078	0.6908943354627604	1.369750269114785	0.10557150057067398	0.8738831367300499	1.7892468011461589	0.16531711157015894	0.7212229650377209	1.8310106046016499	0.08216309106288316	0.7366964968998395	1.8173929151282977	0.10407722715412436	0.9991343566740363	1.8488104314846268	0.30963164829521317	0.5087687209710064	0.43251956024334776	0.31195521959510797	0.4027194812285136	0.19816242898945563	0.28173397557358426	0.35121467980835513	0.34266799318233476	0.4684841058544205	0.5025923632882063	0.5134606002059775	0.5291861577808374	0.4952847798045372	0.7460270244846051	0.4989502458688976	0.28235047347306097	0.7194477919302795	0.459180007016527	0.14771013468616648	0.6546694400244201	0.46320968644268884	0.13835705402913992	0.6567110174421614	0.4618101975764693	0.17829583027975274	0.7056587030875976	0.14952216711315547	0.5162943770291486	0.5073758073068779	0.07361296182711441	0.5301664722082325	0.7606239298917347	0.07408275733297946	0.3189338951222625	0.7187498511811153	0.07004256988091993	0.2801395935096772	0.6464239421718516	0.06226490023542471	0.26659392395249987	0.6540017644559045	0.06918798557020306	0.24925351965795065	0.6964302607680037
696	11.6	0.38177397114797484	0.5900039272333635	0.9522219746755156	0.4169188175489111	0.7155439329366907	1.3597806187847614	0.3990306205304808	0.9030572773331949	1.7721302030088826	0.332142598775663	0.7591011972933456	1.8185709262950127	0.4100167602527752	0.7904964514143383	1.8245721888936195	0.40159998683627957	1.016822119721179	1.8319764713475044	0.17244648759028885	0.5852383153002534	0.9693117007494291	0.1661723196177335	0.6899032820572141	1.3700451216452738	0.10661498077862505	0.8771448949294101	1.794572723093102	0.1604851085363516	0.7187086486394648	1.826772520214571	0.08158758557939036	0.7385684751266476	1.8144684761197607	0.11802887162513702	0.983009478666718	1.8428187559782387	0.3021004796321916	0.5106795823288315	0.4327596833151188	0.31179137594835005	0.4024867941415339	0.19829766040918634	0.2816659338813579	0.3514034750031044	0.3427432595461971	0.4548945951279349	0.5096726294105406	0.5105547617645114	0.5153978378371354	0.49727816769186495	0.7353505340039728	0.5111858794132236	0.2725179171126036	0.7184471969935415	0.4932559157463425	0.15012645881011039	0.6349837697072376	0.5073308754504982	0.12741161094517833	0.6381574256332416	0.4947681520491083	0.20348921540897083	0.691101178754486	0.14748017068981675	0.503355285808796	0.5078860873581654	0.07356527237651538	0.5268195924667775	0.7415810486091996	0.05326321123445836	0.2993210614930285	0.7093411522250834	0.029239961473321	0.2898880377204445	0.6249860722969867	0.027702983021982295	0.253541466469057	0.6361355066091284	0.05057673629127114	0.2456735737151599	0.6910553936268422
